solid OpenSCAD_Model
  facet normal 1 -0 0
    outer loop
      vertex 50 0 2
      vertex 50 15 0
      vertex 50 15 2
    endloop
  endfacet
  facet normal 1 0 0
    outer loop
      vertex 50 15 0
      vertex 50 0 2
      vertex 50 0 0
    endloop
  endfacet
  facet normal -0 0 1
    outer loop
      vertex 0 60 2
      vertex 10 15 2
      vertex 10 60 2
    endloop
  endfacet
  facet normal 0 0 1
    outer loop
      vertex 0 0 2
      vertex 10 15 2
      vertex 0 60 2
    endloop
  endfacet
  facet normal 0 0 1
    outer loop
      vertex 10 15 2
      vertex 0 0 2
      vertex 10 10.75 2
    endloop
  endfacet
  facet normal 0 0 1
    outer loop
      vertex 50 15 2
      vertex 45 10.75 2
      vertex 50 0 2
    endloop
  endfacet
  facet normal -0 0 1
    outer loop
      vertex 10 15 2
      vertex 45 10.75 2
      vertex 50 15 2
    endloop
  endfacet
  facet normal 0 0 1
    outer loop
      vertex 45 10.75 2
      vertex 10 15 2
      vertex 10 10.75 2
    endloop
  endfacet
  facet normal -0 0 1
    outer loop
      vertex 45 4.25 2
      vertex 50 0 2
      vertex 45 10.75 2
    endloop
  endfacet
  facet normal -0 0 1
    outer loop
      vertex 10 4.25 2
      vertex 50 0 2
      vertex 45 4.25 2
    endloop
  endfacet
  facet normal 0 0 1
    outer loop
      vertex 10 4.25 2
      vertex 0 0 2
      vertex 50 0 2
    endloop
  endfacet
  facet normal 0 0 1
    outer loop
      vertex 10 10.75 2
      vertex 0 0 2
      vertex 10 4.25 2
    endloop
  endfacet
  facet normal 0 0 -1
    outer loop
      vertex 50 0 0
      vertex 45 4.25 0
      vertex 50 15 0
    endloop
  endfacet
  facet normal 0 0 -1
    outer loop
      vertex 50 0 0
      vertex 10 4.25 0
      vertex 45 4.25 0
    endloop
  endfacet
  facet normal 0 0 -1
    outer loop
      vertex 0 0 0
      vertex 10 10.75 0
      vertex 10 4.25 0
    endloop
  endfacet
  facet normal -0 0 -1
    outer loop
      vertex 10 10.75 0
      vertex 0 0 0
      vertex 10 15 0
    endloop
  endfacet
  facet normal 0 0 -1
    outer loop
      vertex 0 0 0
      vertex 10 4.25 0
      vertex 50 0 0
    endloop
  endfacet
  facet normal -0 0 -1
    outer loop
      vertex 10 15 0
      vertex 0 0 0
      vertex 0 60 0
    endloop
  endfacet
  facet normal 0 0 -1
    outer loop
      vertex 10 15 0
      vertex 0 60 0
      vertex 10 60 0
    endloop
  endfacet
  facet normal 0 0 -1
    outer loop
      vertex 45 10.75 0
      vertex 50 15 0
      vertex 45 4.25 0
    endloop
  endfacet
  facet normal 0 0 -1
    outer loop
      vertex 10 15 0
      vertex 45 10.75 0
      vertex 10 10.75 0
    endloop
  endfacet
  facet normal 0 0 -1
    outer loop
      vertex 45 10.75 0
      vertex 10 15 0
      vertex 50 15 0
    endloop
  endfacet
  facet normal -1 0 0
    outer loop
      vertex 0 0 0
      vertex 0 60 2
      vertex 0 60 0
    endloop
  endfacet
  facet normal -1 -0 0
    outer loop
      vertex 0 60 2
      vertex 0 0 0
      vertex 0 0 2
    endloop
  endfacet
  facet normal 0 1 -0
    outer loop
      vertex 50 15 0
      vertex 10 15 2
      vertex 50 15 2
    endloop
  endfacet
  facet normal 0 1 0
    outer loop
      vertex 10 15 2
      vertex 50 15 0
      vertex 10 15 0
    endloop
  endfacet
  facet normal 0 -1 0
    outer loop
      vertex 0 0 0
      vertex 50 0 2
      vertex 0 0 2
    endloop
  endfacet
  facet normal 0 -1 -0
    outer loop
      vertex 50 0 2
      vertex 0 0 0
      vertex 50 0 0
    endloop
  endfacet
  facet normal 1 -0 0
    outer loop
      vertex 10 15 2
      vertex 10 60 0
      vertex 10 60 2
    endloop
  endfacet
  facet normal 1 0 0
    outer loop
      vertex 10 60 0
      vertex 10 15 2
      vertex 10 15 0
    endloop
  endfacet
  facet normal 0 1 -0
    outer loop
      vertex 10 60 0
      vertex 0 60 2
      vertex 10 60 2
    endloop
  endfacet
  facet normal 0 1 0
    outer loop
      vertex 0 60 2
      vertex 10 60 0
      vertex 0 60 0
    endloop
  endfacet
  facet normal -1 0 0
    outer loop
      vertex 45 4.25 0
      vertex 45 10.75 2
      vertex 45 10.75 0
    endloop
  endfacet
  facet normal -1 -0 0
    outer loop
      vertex 45 10.75 2
      vertex 45 4.25 0
      vertex 45 4.25 2
    endloop
  endfacet
  facet normal 1 -0 0
    outer loop
      vertex 10 4.25 2
      vertex 10 10.75 0
      vertex 10 10.75 2
    endloop
  endfacet
  facet normal 1 0 0
    outer loop
      vertex 10 10.75 0
      vertex 10 4.25 2
      vertex 10 4.25 0
    endloop
  endfacet
  facet normal 0 -1 0
    outer loop
      vertex 10 10.75 0
      vertex 45 10.75 2
      vertex 10 10.75 2
    endloop
  endfacet
  facet normal 0 -1 -0
    outer loop
      vertex 45 10.75 2
      vertex 10 10.75 0
      vertex 45 10.75 0
    endloop
  endfacet
  facet normal 0 1 -0
    outer loop
      vertex 45 4.25 0
      vertex 10 4.25 2
      vertex 45 4.25 2
    endloop
  endfacet
  facet normal 0 1 0
    outer loop
      vertex 10 4.25 2
      vertex 45 4.25 0
      vertex 10 4.25 0
    endloop
  endfacet
endsolid OpenSCAD_Model
